<svg xmlns="http://www.w3.org/2000/svg" width="966" height="564" viewBox="0 0 966 564" version="1.1"><path d="M 722.506 7.250 C 713.904 32.182, 703.829 43.002, 682.507 50.205 C 672.422 53.612, 672.493 54.387, 683.264 58.439 C 702.717 65.756, 707.437 71.107, 715.375 94.843 C 719.175 106.204, 719.705 106.298, 723.500 96.281 C 731.286 75.729, 739.496 67.888, 760.326 61.109 C 770.683 57.739, 770.721 56.997, 760.724 53.200 C 742.722 46.362, 734.966 37.249, 727.489 14.152 C 725.001 6.468, 723.496 4.382, 722.506 7.250 M 811.115 24.010 C 809.596 29.081, 804.552 34.163, 798.616 36.605 C 792.930 38.943, 792.886 39.588, 798.250 41.915 C 803.800 44.323, 806.617 47.490, 808.851 53.833 C 811.282 60.737, 811.517 60.831, 813.481 55.688 C 815.851 49.482, 819.863 45.486, 825.861 43.356 C 832.129 41.130, 832.225 40.454, 826.616 38.050 C 821.532 35.870, 817.631 31.209, 815.392 24.637 C 813.457 18.958, 812.664 18.841, 811.115 24.010 M 218.500 43.984 C 210.371 45.682, 184.624 56.255, 164.750 66.056 C 158.883 68.950, 158.590 71.240, 163.750 73.873 C 172.239 78.206, 171.437 69.014, 172 168.354 C 172.547 264.729, 172.258 260.265, 178.217 264.439 C 180.459 266.010, 238 266.942, 238 265.408 C 238 265.082, 237.107 263.680, 236.015 262.292 C 231.556 256.624, 231.594 257.480, 231.034 149.300 C 230.678 80.448, 230.157 45.756, 229.469 45.068 C 227.928 43.528, 223.011 43.042, 218.500 43.984 M 475 43.691 C 467.639 44.923, 447.323 52.898, 427.750 62.239 C 413.786 68.903, 412.105 70.889, 418.250 73.464 C 427.161 77.197, 426.500 69.637, 426.500 167.831 C 426.500 263.320, 426.797 257.895, 421.224 264.250 C 419.767 265.913, 421.518 266, 456.345 266 C 476.505 266, 493 265.795, 493 265.544 C 493 265.294, 491.922 263.501, 490.605 261.560 C 480.087 246.061, 484.743 159.337, 496.463 152.469 C 514.329 141.999, 517.008 149.039, 516.976 206.375 C 516.950 251.725, 516.611 255.900, 512.437 262.250 C 509.972 266, 509.972 266, 546.567 266 C 583.163 266, 583.163 266, 580.984 262.475 C 576.302 254.898, 576.025 251.516, 576.012 201.822 C 575.996 138.099, 574.325 128.395, 561.419 117.063 C 542.893 100.797, 514.726 107.946, 493.698 134.250 C 485.796 144.134, 486 145.227, 486 93 C 486 38.975, 486.618 41.746, 475 43.691 M 785.616 81.336 C 781.343 92.524, 774.686 99.184, 763.813 103.149 C 756.788 105.710, 756.824 106.422, 764.127 109.390 C 774.906 113.771, 778.368 117.877, 782.562 131.250 C 783.554 134.412, 784.681 137, 785.066 137 C 785.452 137, 786.801 134.412, 788.064 131.250 C 792.605 119.881, 797.561 115.091, 809.154 110.863 C 816.359 108.236, 816.370 107.936, 809.360 105.030 C 799.567 100.971, 793.294 93.234, 790.061 81.225 C 788.622 75.882, 787.690 75.906, 785.616 81.336 M 63.500 109.583 C 23.304 115.102, 13.740 122.639, 14.222 148.419 C 14.689 173.371, 21.399 173.658, 39.491 149.500 C 60.981 120.805, 83.439 112.898, 92.224 130.934 C 98.492 143.803, 95.164 150.563, 80.639 154.471 C 30.548 167.945, 4.752 193.898, 4.551 231.021 C 4.354 267.551, 47.919 282.445, 79 256.473 C 89.754 247.487, 93.030 247.334, 95.265 255.715 C 97.991 265.932, 98.230 266, 131.589 266 C 161.025 266, 161.025 266, 158.679 262.250 C 154.754 255.978, 154.667 254.961, 154.050 208.500 C 153.370 157.232, 152.933 154.543, 142.807 139.403 C 127.908 117.128, 95.982 105.124, 63.500 109.583 M 295.741 110.087 C 287.326 112.070, 242.153 131.531, 239.132 134.475 C 237.342 136.218, 238.296 137.600, 242.915 139.957 C 251.099 144.132, 250.500 136.783, 250.500 233 C 250.500 323.924, 250.636 321.159, 245.825 328.154 C 244.821 329.614, 244 331.077, 244 331.404 C 244 332.941, 301.537 332.012, 303.783 330.439 C 309.371 326.525, 309.474 325.727, 309.814 283.688 C 309.987 262.341, 310.491 245.016, 310.936 245.188 C 311.380 245.360, 313.974 248.417, 316.699 251.982 C 341.929 284.984, 392.716 269.714, 407.060 224.814 C 430.697 150.822, 368.312 77.354, 319.279 121.439 C 312.127 127.869, 310 127.639, 310 120.434 C 310 109.809, 306.793 107.482, 295.741 110.087 M 648.500 109.951 C 614.929 113.862, 602.063 124.486, 602.022 148.327 C 601.979 173.426, 608.917 173.670, 628.472 149.256 C 651.046 121.073, 668.508 113.862, 679.346 128.249 C 687.909 139.616, 684.479 150.824, 671.500 153.888 C 620.853 165.847, 590.708 196.727, 593.265 234.032 C 595.643 268.729, 637.375 281.387, 667.500 256.548 C 678.871 247.172, 681.740 247.152, 684.437 256.431 C 687.272 266.184, 686.576 266, 720.703 266 C 750.136 266, 750.136 266, 748.093 263.131 C 743.676 256.928, 743.606 256.200, 742.911 209.500 C 742.186 160.777, 742.123 160.198, 736.221 147.732 C 722.521 118.794, 690.598 105.045, 648.500 109.951 M 318.722 134.988 C 304.095 146.578, 306.148 231.699, 321.246 239.660 C 342.672 250.958, 356.581 223.572, 353.041 177.056 C 350.484 143.455, 333.818 123.025, 318.722 134.988 M 78.343 170.059 C 50.830 183.678, 49.619 240.500, 76.843 240.500 C 92.308 240.500, 94.500 235.392, 94.500 199.356 C 94.500 166.041, 92.776 162.915, 78.343 170.059 M 667.500 169.669 C 637.715 185.444, 638.955 244.757, 668.985 240.729 C 681.082 239.106, 683.500 232.230, 683.500 199.456 C 683.500 166.963, 681.088 162.472, 667.500 169.669" stroke="none" fill="#06bb74" fill-rule="evenodd"/><path d="M 382.500 273.890 C 351.127 283.028, 323.054 298.754, 331.908 302.232 C 340.551 305.627, 339.992 299.249, 339.996 394.568 C 340 484.831, 339.995 484.922, 334.930 491.362 C 332.855 494, 332.855 494, 369.397 494 C 405.940 494, 405.940 494, 403.484 490.382 C 399.669 484.760, 399.012 480.740, 399.006 463.016 C 399 446.532, 399 446.532, 403.060 453.480 C 419.104 480.935, 444.372 497, 471.511 497 C 489.478 497, 489.004 497.861, 488.985 465.316 C 488.966 431.491, 488.687 430.967, 473.855 436.859 C 438.841 450.768, 398.500 433.089, 398.500 403.836 C 398.500 388.705, 407.846 382.483, 430.500 382.532 C 446.809 382.568, 446.002 382.374, 467.850 391.506 C 485.866 399.036, 488.570 394.995, 487.844 361.624 C 487.448 343.429, 487.017 342.568, 476.802 339.534 C 452.336 332.268, 418.630 345.832, 403.005 369.230 C 399 375.228, 399 375.228, 398.864 331.364 C 398.789 307.239, 398.606 285.925, 398.458 284 C 398.310 282.075, 398.146 279.295, 398.094 277.821 C 397.887 271.914, 393.276 270.752, 382.500 273.890 M 558 339.560 C 505.733 350.823, 480.901 417.531, 512.049 463 C 537.570 500.255, 596.126 508.763, 625.416 479.473 C 640.008 464.880, 645.290 438.015, 631.388 449.099 C 613.781 463.137, 581.343 458.066, 555.483 437.233 C 540.463 425.132, 542.657 423.526, 572.985 424.427 C 623.452 425.924, 637.974 419.271, 637.994 394.644 C 638.026 356.080, 600.678 330.363, 558 339.560 M 708.408 339.484 C 645.054 353.269, 626.892 441.170, 679.263 480.538 C 715.510 507.786, 768.784 500.480, 785.273 466 C 792.415 451.066, 790.422 441.301, 781.780 448.888 C 774.423 455.348, 763.356 458.734, 753.616 457.506 C 728.903 454.390, 694.852 434.647, 698.371 425.475 C 699 423.837, 700.680 423.764, 722.773 424.414 C 773.875 425.917, 788.264 419.412, 788.103 394.879 C 787.847 355.597, 751.254 330.162, 708.408 339.484 M 845 339.918 C 834.925 343.233, 796.403 359.889, 793.250 362.292 C 790.998 364.008, 791.932 365.924, 796.039 368.020 C 804.578 372.376, 803.992 365.561, 803.996 460.591 C 804 550.495, 804.029 549.938, 799.052 556.928 C 796.864 560, 796.864 560, 824.464 560 C 865.693 560, 862.249 564.427, 862.975 510.500 C 863.500 471.500, 863.500 471.500, 868.148 477.541 C 895.970 513.705, 946.298 498.410, 960.477 449.484 C 981.544 376.784, 920.547 307.565, 872.692 349.866 C 864.343 357.246, 863.166 356.910, 862.533 346.971 C 861.926 337.433, 857.707 335.736, 845 339.918 M 188.045 352.250 C 182.172 371.873, 167.060 386.566, 146.643 392.501 C 139.647 394.535, 139.809 395.608, 147.542 398.416 C 168.581 406.058, 174.476 412.429, 182.082 435.750 C 186.088 448.031, 186.036 448.014, 189.452 438.250 C 196.668 417.630, 207.311 407.637, 228.777 401.328 C 236.368 399.097, 236.563 397.941, 229.750 395.560 C 209.919 388.631, 199.742 377.063, 193.408 354.250 C 191.376 346.935, 189.810 346.351, 188.045 352.250 M 278.646 363.257 C 277.181 369.056, 272.203 374.789, 266.085 377.726 C 260.003 380.645, 260.003 380.645, 264.988 382.898 C 270.801 385.525, 273.366 388.446, 275.747 395.151 C 277.805 400.945, 278.468 401.141, 280.028 396.414 C 280.679 394.442, 282.512 391.348, 284.101 389.537 C 286.827 386.433, 288.266 385.601, 295.473 382.967 C 298.447 381.880, 298.447 381.880, 293.991 379.885 C 287.308 376.893, 281 368.982, 281 363.592 C 281 361.119, 279.250 360.869, 278.646 363.257 M 871.607 363.095 C 863.955 369.114, 862.784 376.792, 863.235 418 C 863.660 456.878, 864.453 460.839, 873.087 467.231 C 896.181 484.331, 914.562 438.614, 904.420 389.300 C 899.932 367.476, 883.113 354.044, 871.607 363.095 M 538.453 363.326 C 520.697 370.168, 517.935 394.200, 533.350 407.734 C 544.589 417.602, 585.281 413.552, 591.301 401.966 C 601.400 382.530, 562.476 354.070, 538.453 363.326 M 689.994 362.934 C 673.052 368.088, 668.298 388.306, 680.290 404.206 C 692.116 419.886, 740.804 414.793, 742.733 397.674 C 745.022 377.371, 712.645 356.044, 689.994 362.934 M 253.482 419.500 C 248.307 433.679, 235.727 446, 226.425 446 C 223.056 446, 224.479 447.998, 228.892 449.464 C 240.111 453.191, 244.640 458.099, 249.038 471.299 C 251.519 478.747, 251.891 478.772, 254.535 471.671 C 258.314 461.517, 265.640 454.792, 276.729 451.296 C 283.187 449.260, 283.227 448.912, 277.250 446.757 C 267.108 443.100, 261.875 437.765, 258.012 427.145 C 254.428 417.292, 254.341 417.145, 253.482 419.500" stroke="none" fill="#8d5ebb" fill-rule="evenodd"/></svg>