<svg width="131" height="131" viewBox="0 0 131 131" fill="none" xmlns="http://www.w3.org/2000/svg">
    <path d="M39.4755 26.6144C34.3953 29.9523 29.8335 34.346 26.2305 39.3705C22.3927 44.7163 19.5499 51.2208 18.1754 57.758C16.1128 67.6847 17.4239 78.2971 21.8288 87.1725C22.7829 89.0905 25.1083 92.876 26.2734 94.4062C33.6483 104.09 44.0388 110.263 56.1593 112.184C67.3655 113.943 78.6456 111.848 88.6495 106.144C97.9276 100.855 105.182 92.9456 109.501 83.4318C114.485 72.4423 115.132 60.0577 111.292 48.9466C108.792 41.7013 104.214 34.8921 98.4599 29.8363C94.7082 26.5562 90.1454 23.7116 85.5822 21.8441C78.9112 19.091 71.0717 17.8336 63.8311 18.3354C55.2134 18.94 46.7731 21.8118 39.4755 26.6144ZM48.3589 25.0823C55.613 21.9636 63.2172 20.7059 70.9744 21.3546C78.6933 21.9849 86.3415 24.7162 92.5075 29.0284C102.599 36.0937 109.117 46.9889 110.497 59.1407C112.104 73.157 106.483 87.7216 95.7042 97.4929C92.8051 100.109 91.152 101.292 87.1757 103.559C84.2092 105.251 83.5187 105.604 81.9682 106.234C73.8338 109.52 65.834 110.548 57.5363 109.392C51.1292 108.495 45.2984 106.36 39.9242 102.948C35.6182 100.211 32.0215 96.9095 28.7315 92.6302C27.5953 91.1505 24.8408 86.5391 24.0477 84.7568C20.304 76.4544 19.3032 67.3643 21.147 58.3251C23.2929 47.7622 28.9666 38.5466 37.6211 31.552C38.5704 30.7967 39.4854 30.1279 41.675 28.6387C42.6177 27.9942 46.9577 25.6805 48.3589 25.0823Z" fill="currentColor"/>
    <path d="M40.0478 50.8689C38.746 52.1061 38.1123 54.6618 38.4482 57.2802C38.5876 58.4049 38.9641 59.9699 39.3765 61.2066C39.6495 62.0277 40.0219 62.7788 41.1953 64.8126C42.5655 67.216 42.72 67.4625 43.6728 68.4981C47.6664 72.9115 51.9378 74.1693 54.2704 71.6352C54.8122 71.0454 55.3407 69.8208 55.5401 68.7036C55.7347 67.6025 55.6194 65.2732 55.3102 63.9241C54.011 58.2958 49.9716 52.6775 45.8121 50.6869C44.6954 50.146 43.2104 49.8152 42.3061 49.9159C41.5138 49.993 40.5142 50.4157 40.0478 50.8689ZM44.4875 52.0308C46.5624 52.6141 48.1473 56.5676 46.6535 57.4192C46.1907 57.683 45.6383 57.5698 44.8708 57.0305C44.1197 56.4954 43.1813 54.8494 43.0564 53.8234C42.8764 52.4809 43.4716 51.7402 44.4875 52.0308Z" fill="currentColor"/>
    <path d="M63.3291 37.6495C62.772 38.2615 62.4894 38.7437 62.2198 39.5665C60.8398 43.6983 62.9782 50.4806 67.1272 55.1667C71.1583 59.7192 75.7818 60.9101 77.932 57.9582C80.5321 54.4019 78.5556 46.3632 73.7719 40.9551C70.5211 37.2824 66.8944 35.7373 64.3666 36.951C63.9496 37.1486 63.5355 37.4248 63.3291 37.6495ZM68.13 38.4181C69.6981 38.6748 71.4471 41.5714 70.9746 43.1386C70.7079 44.04 69.8507 44.2477 68.908 43.6211C68.2355 43.1749 67.4607 42.1582 67.1667 41.349C66.4902 39.5269 66.9191 38.2254 68.13 38.4181Z" fill="currentColor"/>
    <path d="M35.9898 84.8002C35.5534 85.4771 35.7936 86.143 36.6712 86.7533C37.3552 87.2196 38.2284 87.431 39.2581 87.3791L40.0572 87.3383L41.0271 88.2572C44.9115 91.9167 49.4948 94.4551 54.7944 95.9028C65.9958 98.9499 78.2881 95.9159 87.1144 87.9269C91.8726 83.6086 95.3369 78.0476 97.0642 71.8846C98.5734 66.4883 98.7303 61.1403 97.5234 55.8206L97.2595 54.6732L97.7438 53.9823C98.5136 52.8878 98.7116 51.4503 98.2155 50.5556C97.9276 50.0507 97.4028 49.8147 96.8986 49.9817C96.3093 50.1705 96.0678 50.6026 96.1024 51.3723C96.166 52.3395 95.9285 52.8764 95.2868 53.2422C94.6556 53.602 94.0621 53.539 93.4422 53.0628C92.8826 52.6192 92.5734 52.5412 92.1171 52.6943C91.6187 52.8714 91.273 53.3897 91.3407 53.8996C91.4386 54.7804 92.8861 55.6813 94.2519 55.7054C94.6769 55.7174 95.0723 55.7997 95.1183 55.8805C95.1644 55.9613 95.3485 56.8465 95.5423 57.8466C96.1279 61.0986 96.1346 65.0955 95.5327 68.4894C95.2498 70.0958 94.2593 73.4436 93.603 74.9818C91.5026 79.9525 88.2518 84.201 83.8724 87.7413C82.7405 88.6409 82.2108 88.983 79.6862 90.4223C77.1615 91.8617 76.603 92.1533 75.2992 92.629C69.2899 94.8507 63.5003 95.355 57.4105 94.1839C53.0479 93.3527 48.3119 91.1823 44.7619 88.4026C43.8037 87.651 42.0011 86.0294 42.0412 85.953C42.8517 84.5142 43.0392 83.7918 42.8752 82.8684C42.7044 81.9087 42.0509 81.3982 41.3191 81.6548C40.7308 81.8698 40.454 82.3621 40.5497 83.0435C40.6782 83.8801 40.3863 84.5416 39.7551 84.9014C39.1029 85.2732 38.5956 85.2146 37.8665 84.6936C37.1154 84.1585 36.3698 84.1955 35.9898 84.8002Z" fill="currentColor"/>
</svg>
