<svg width="86" height="85" viewBox="0 0 86 85" fill="none" xmlns="http://www.w3.org/2000/svg">
<path d="M31.3078 10.5417C27.2011 12.0258 23.2804 14.3341 19.9245 17.2433C16.3507 20.3377 13.2788 24.4078 11.2272 28.7458C8.12915 35.3371 7.27384 42.9706 8.86997 49.907C9.21643 51.4064 10.2093 54.4394 10.7679 55.703C14.3041 63.7002 20.5335 69.747 28.6813 73.1123C36.2171 76.2124 44.4482 76.6311 52.3897 74.3161C59.7551 72.1691 66.1441 67.8539 70.7498 61.9277C76.0658 55.0813 78.5853 46.5364 77.7573 38.1324C77.2201 32.653 75.1574 27.1311 71.9814 22.6384C69.9076 19.7203 67.1945 16.9713 64.318 14.9048C60.1166 11.8677 54.8492 9.68061 49.7065 8.82267C43.5846 7.80662 37.2081 8.40421 31.3078 10.5417ZM37.7702 10.954C43.3591 9.98586 48.8819 10.3764 54.1935 12.1244C59.4813 13.8533 64.3691 17.0382 67.9574 21.0803C73.8286 27.7011 76.5641 36.4015 75.5002 45.1222C74.2834 55.1834 67.925 64.4211 58.7628 69.4489C56.3006 70.7929 54.9481 71.3437 51.7915 72.2639C49.4366 72.9503 48.8951 73.0821 47.7067 73.2633C41.4748 74.2014 35.7138 73.5846 30.1094 71.3913C25.7826 69.6955 22.0651 67.2305 18.8798 63.9494C16.328 61.3186 14.3661 58.4114 12.7818 54.8724C12.2349 53.6489 11.0801 49.9672 10.8235 48.5895C9.5937 42.1639 10.4118 35.6458 13.2088 29.638C16.4712 22.6161 21.9737 17.1243 29.1879 13.6819C29.9773 13.3126 30.7282 12.9981 32.5066 12.3231C33.2728 12.0302 36.6913 11.1381 37.7702 10.954Z" fill="#00BF74"/>
<path d="M27.6591 27.5834C26.543 28.2305 25.6736 29.9103 25.4712 31.7958C25.3809 32.6049 25.3827 33.7612 25.4644 34.6941C25.5181 35.3134 25.653 35.9003 26.1333 37.5172C26.6895 39.4251 26.7563 39.6231 27.2491 40.5057C29.3027 44.2559 32.0771 45.8477 34.1298 44.4665C34.6069 44.1448 35.1805 43.3775 35.5063 42.6302C35.826 41.8933 36.1343 40.2466 36.1435 39.2524C36.1752 35.1031 34.2908 30.5035 31.7169 28.4184C31.0269 27.8541 30.0446 27.375 29.396 27.2945C28.8295 27.2161 28.0606 27.3446 27.6591 27.5834ZM30.5671 29.1362C31.9194 29.8901 32.3668 32.9169 31.181 33.2626C30.8135 33.3697 30.4465 33.1983 30.0003 32.6935C29.5649 32.1942 29.184 30.8875 29.2679 30.1498C29.3663 29.1818 29.9058 28.7636 30.5671 29.1362Z" fill="#00BF74"/>
<path d="M46.1319 22.2333C45.6405 22.5679 45.3626 22.8576 45.0368 23.3875C43.383 26.044 43.7449 31.1396 45.8616 35.1062C47.9182 38.9599 50.9498 40.5637 52.9448 38.8601C55.355 36.8094 55.3159 30.863 52.8763 26.286C51.2181 23.1773 48.9421 21.4924 46.9733 21.9184C46.649 21.9869 46.3136 22.1107 46.1319 22.2333ZM49.3579 23.5717C50.4107 24.0128 51.1491 26.3285 50.5574 27.3447C50.2207 27.9299 49.587 27.932 49.033 27.3368C48.6376 26.9128 48.266 26.0731 48.1956 25.4587C48.0271 24.0727 48.544 23.2349 49.3579 23.5717Z" fill="#00BF74"/>
<path d="M19.16 50.6132C18.7421 51.0134 18.7988 51.5187 19.3101 52.0916C19.7101 52.5316 20.2849 52.825 21.0131 52.9607L21.5782 53.0656L22.1025 53.8695C24.2056 57.0746 26.9842 59.6132 30.4452 61.5093C37.7628 65.508 46.8577 65.44 54.358 61.3315C58.4033 59.1086 61.752 55.8015 63.9875 51.7839C65.9427 48.2654 66.945 44.5551 66.9898 40.6369L66.9969 39.7911L67.4506 39.3892C68.1712 38.753 68.5494 37.7817 68.3521 37.0738C68.2353 36.673 67.908 36.4205 67.5279 36.453C67.0846 36.4865 66.8438 36.7481 66.7395 37.2917C66.6225 37.9781 66.3669 38.3135 65.8575 38.462C65.3564 38.6081 64.9523 38.4649 64.5987 38.0288C64.2817 37.6254 64.0787 37.5193 63.7343 37.5502C63.3565 37.5907 63.0285 37.8951 62.9907 38.2627C62.9121 38.8944 63.773 39.7654 64.7233 40.0103C65.0182 40.0896 65.2807 40.2131 65.2994 40.2772C65.3181 40.3414 65.2989 40.9906 65.2674 41.7217C65.1338 44.0916 64.4713 46.8853 63.4842 49.156C63.0185 50.2312 61.7676 52.4049 61.0523 53.3701C58.7551 56.4924 55.7746 58.9181 52.1239 60.6607C51.1829 61.1003 50.7557 61.2509 48.7515 61.8351C46.7473 62.4194 46.3084 62.5299 45.318 62.6446C40.7486 63.1939 36.6193 62.5798 32.56 60.745C29.6506 59.4361 26.704 57.1291 24.6876 54.5945C24.1436 53.9094 23.1548 52.4755 23.1956 52.4288C24.002 51.5588 24.2536 51.0854 24.2932 50.4129C24.334 49.7138 23.9627 49.248 23.4085 49.3052C22.9616 49.3572 22.686 49.655 22.6392 50.147C22.5893 50.753 22.2749 51.1664 21.7739 51.3125C21.2561 51.4634 20.9115 51.3377 20.489 50.8521C20.0535 50.3528 19.5265 50.2542 19.16 50.6132Z" fill="#00BF74"/>
</svg>
